# xmcd
#
# Track frame offsets:
#	150
#	14667
#	24115
#	36250
#	46217
#	59755
#	71947
#	85100
#	97922
#	109507
#
# Disc length: 1630 seconds
#
# Revision: 3
# Processed by: cddbd v1.5.1PL0 Copyright (c) Steve Scherf et al.
# Submitted via: audiograbber 1.83.01
#
DISCID=7d065c0a
DTITLE=George Strait - Right Or Wrong
DYEAR=1983
DGENRE=Country
TTITLE0=You Look So Good In Love
TTITLE1=Right Or Wrong
TTITLE2=A Little Heaven's Rubbing Off On Me
TTITLE3=80 Proof Bottle Of Tear Stopper
TTITLE4=Every Time It Rains (Lord Don't It Pour)
TTITLE5=You're The Cloud I'm On (When I'm High)
TTITLE6=Let's Fall To Pieces Together
TTITLE7=I'm Satisfied With You
TTITLE8=Our Paths May Never Cross
TTITLE9=Fifteen Year Going Up (And One Night Coming Down)
EXTD=
EXTT0=
EXTT1=
EXTT2=
EXTT3=
EXTT4=
EXTT5=
EXTT6=
EXTT7=
EXTT8=
EXTT9=
PLAYORDER=
